<mxfile host="app.diagrams.net" agent="Mozilla/5.0 (Windows NT 10.0; Win64; x64) AppleWebKit/537.36 (KHTML, like Gecko) Chrome/127.0.0.0 Safari/537.36" version="24.7.6">
  <diagram name="Page-1" id="2YBvvXClWsGukQMizWep">
    <mxGraphModel dx="819" dy="426" grid="1" gridSize="10" guides="1" tooltips="1" connect="1" arrows="1" fold="1" page="1" pageScale="1" pageWidth="850" pageHeight="1100" math="0" shadow="0">
      <root>
        <mxCell id="0" />
        <mxCell id="1" parent="0" />
        <mxCell id="aM9ryv3xv72pqoxQDRHE-1" value="Browser" style="shape=umlLifeline;perimeter=lifelinePerimeter;whiteSpace=wrap;html=1;container=0;dropTarget=0;collapsible=0;recursiveResize=0;outlineConnect=0;portConstraint=eastwest;newEdgeStyle={&quot;edgeStyle&quot;:&quot;elbowEdgeStyle&quot;,&quot;elbow&quot;:&quot;vertical&quot;,&quot;curved&quot;:0,&quot;rounded&quot;:0};" parent="1" vertex="1">
          <mxGeometry x="40" y="40" width="100" height="430" as="geometry" />
        </mxCell>
        <mxCell id="aM9ryv3xv72pqoxQDRHE-2" value="" style="html=1;points=[];perimeter=orthogonalPerimeter;outlineConnect=0;targetShapes=umlLifeline;portConstraint=eastwest;newEdgeStyle={&quot;edgeStyle&quot;:&quot;elbowEdgeStyle&quot;,&quot;elbow&quot;:&quot;vertical&quot;,&quot;curved&quot;:0,&quot;rounded&quot;:0};" parent="aM9ryv3xv72pqoxQDRHE-1" vertex="1">
          <mxGeometry x="45" y="70" width="10" height="330" as="geometry" />
        </mxCell>
        <mxCell id="aM9ryv3xv72pqoxQDRHE-5" value="Server" style="shape=umlLifeline;perimeter=lifelinePerimeter;whiteSpace=wrap;html=1;container=0;dropTarget=0;collapsible=0;recursiveResize=0;outlineConnect=0;portConstraint=eastwest;newEdgeStyle={&quot;edgeStyle&quot;:&quot;elbowEdgeStyle&quot;,&quot;elbow&quot;:&quot;vertical&quot;,&quot;curved&quot;:0,&quot;rounded&quot;:0};" parent="1" vertex="1">
          <mxGeometry x="390" y="40" width="100" height="430" as="geometry" />
        </mxCell>
        <mxCell id="aM9ryv3xv72pqoxQDRHE-6" value="" style="html=1;points=[];perimeter=orthogonalPerimeter;outlineConnect=0;targetShapes=umlLifeline;portConstraint=eastwest;newEdgeStyle={&quot;edgeStyle&quot;:&quot;elbowEdgeStyle&quot;,&quot;elbow&quot;:&quot;vertical&quot;,&quot;curved&quot;:0,&quot;rounded&quot;:0};" parent="aM9ryv3xv72pqoxQDRHE-5" vertex="1">
          <mxGeometry x="45" y="80" width="10" height="320" as="geometry" />
        </mxCell>
        <mxCell id="aM9ryv3xv72pqoxQDRHE-7" value="GET&amp;nbsp;https://studies.cs.helsinki.fi/exampleapp/notes" style="html=1;verticalAlign=bottom;endArrow=block;edgeStyle=elbowEdgeStyle;elbow=vertical;curved=0;rounded=0;" parent="1" edge="1">
          <mxGeometry relative="1" as="geometry">
            <mxPoint x="95" y="200" as="sourcePoint" />
            <Array as="points">
              <mxPoint x="180" y="200" />
            </Array>
            <mxPoint x="435" y="200" as="targetPoint" />
          </mxGeometry>
        </mxCell>
        <mxCell id="aM9ryv3xv72pqoxQDRHE-9" value="HTML Document" style="html=1;verticalAlign=bottom;endArrow=block;edgeStyle=elbowEdgeStyle;elbow=vertical;curved=0;rounded=0;" parent="1" edge="1">
          <mxGeometry relative="1" as="geometry">
            <mxPoint x="435" y="230" as="sourcePoint" />
            <Array as="points">
              <mxPoint x="190" y="230" />
            </Array>
            <mxPoint x="95" y="230" as="targetPoint" />
          </mxGeometry>
        </mxCell>
        <mxCell id="uimiyolPU2N451aYBAlQ-1" value="GET&amp;nbsp;https://studies.cs.helsinki.fi/exampleapp/main.js" style="html=1;verticalAlign=bottom;endArrow=block;edgeStyle=elbowEdgeStyle;elbow=vertical;curved=0;rounded=0;" edge="1" parent="1">
          <mxGeometry relative="1" as="geometry">
            <mxPoint x="95" y="330" as="sourcePoint" />
            <Array as="points">
              <mxPoint x="185" y="330" />
            </Array>
            <mxPoint x="435" y="330" as="targetPoint" />
          </mxGeometry>
        </mxCell>
        <mxCell id="uimiyolPU2N451aYBAlQ-2" value="Javascript File" style="html=1;verticalAlign=bottom;endArrow=block;edgeStyle=elbowEdgeStyle;elbow=vertical;curved=0;rounded=0;" edge="1" parent="1">
          <mxGeometry relative="1" as="geometry">
            <mxPoint x="435" y="360" as="sourcePoint" />
            <Array as="points">
              <mxPoint x="195" y="360" />
            </Array>
            <mxPoint x="95" y="360" as="targetPoint" />
          </mxGeometry>
        </mxCell>
        <mxCell id="uimiyolPU2N451aYBAlQ-3" value="GET&amp;nbsp;https://studies.cs.helsinki.fi/exampleapp/main.css" style="html=1;verticalAlign=bottom;endArrow=block;edgeStyle=elbowEdgeStyle;elbow=vertical;curved=0;rounded=0;" edge="1" parent="1">
          <mxGeometry relative="1" as="geometry">
            <mxPoint x="95" y="269.71000000000004" as="sourcePoint" />
            <Array as="points">
              <mxPoint x="185" y="269.71000000000004" />
            </Array>
            <mxPoint x="435" y="269.71000000000004" as="targetPoint" />
          </mxGeometry>
        </mxCell>
        <mxCell id="uimiyolPU2N451aYBAlQ-4" value="CSS File" style="html=1;verticalAlign=bottom;endArrow=block;edgeStyle=elbowEdgeStyle;elbow=vertical;curved=0;rounded=0;" edge="1" parent="1">
          <mxGeometry relative="1" as="geometry">
            <mxPoint x="435" y="300" as="sourcePoint" />
            <Array as="points">
              <mxPoint x="195" y="300" />
            </Array>
            <mxPoint x="95" y="300" as="targetPoint" />
          </mxGeometry>
        </mxCell>
        <mxCell id="uimiyolPU2N451aYBAlQ-5" value="GET&amp;nbsp;https://studies.cs.helsinki.fi/exampleapp/data.json" style="html=1;verticalAlign=bottom;endArrow=block;edgeStyle=elbowEdgeStyle;elbow=vertical;curved=0;rounded=0;" edge="1" parent="1">
          <mxGeometry relative="1" as="geometry">
            <mxPoint x="94" y="391" as="sourcePoint" />
            <Array as="points">
              <mxPoint x="184" y="391" />
            </Array>
            <mxPoint x="434" y="391" as="targetPoint" />
          </mxGeometry>
        </mxCell>
        <mxCell id="uimiyolPU2N451aYBAlQ-6" value="&lt;pre style=&quot;text-align: start;&quot;&gt;{&quot;content&quot;:&quot;A&quot;,&quot;date&quot;:&quot;2024-08-06T05:32:31.561Z&quot;}...&lt;/pre&gt;" style="html=1;verticalAlign=bottom;endArrow=block;edgeStyle=elbowEdgeStyle;elbow=vertical;curved=0;rounded=0;strokeColor=default;labelBackgroundColor=none;" edge="1" parent="1">
          <mxGeometry x="0.0235" y="10" relative="1" as="geometry">
            <mxPoint x="434" y="420" as="sourcePoint" />
            <Array as="points">
              <mxPoint x="194" y="420" />
            </Array>
            <mxPoint x="94" y="420" as="targetPoint" />
            <mxPoint as="offset" />
          </mxGeometry>
        </mxCell>
        <mxCell id="uimiyolPU2N451aYBAlQ-7" value="GET&amp;nbsp;https://studies.cs.helsinki.fi/exampleapp/new_note" style="html=1;verticalAlign=bottom;endArrow=block;edgeStyle=elbowEdgeStyle;elbow=vertical;curved=0;rounded=0;" edge="1" parent="1">
          <mxGeometry relative="1" as="geometry">
            <mxPoint x="95" y="124" as="sourcePoint" />
            <Array as="points">
              <mxPoint x="180" y="124" />
            </Array>
            <mxPoint x="435" y="124" as="targetPoint" />
          </mxGeometry>
        </mxCell>
        <mxCell id="uimiyolPU2N451aYBAlQ-8" value="Code 302 Found" style="html=1;verticalAlign=bottom;endArrow=block;edgeStyle=elbowEdgeStyle;elbow=vertical;curved=0;rounded=0;" edge="1" parent="1">
          <mxGeometry relative="1" as="geometry">
            <mxPoint x="435" y="154" as="sourcePoint" />
            <Array as="points">
              <mxPoint x="190" y="154" />
            </Array>
            <mxPoint x="95" y="154" as="targetPoint" />
          </mxGeometry>
        </mxCell>
      </root>
    </mxGraphModel>
  </diagram>
</mxfile>
